<svg width="97" height="96" viewBox="0 0 97 96" fill="none" xmlns="http://www.w3.org/2000/svg">
    <path
        d="M0.934425 32.9673C0.934425 17.4264 0.934429 9.65592 5.76174 4.82794C10.5886 0 18.3577 0 33.896 0H63.0548C78.5931 0 86.3623 0 91.1891 4.82794C96.0164 9.65592 96.0164 17.4264 96.0164 32.9673V62.1309C96.0164 77.6718 96.0164 85.4423 91.1891 90.2699C86.3623 95.098 78.5931 95.098 63.0548 95.098H33.896C18.3577 95.098 10.5886 95.098 5.76174 90.2699C0.934429 85.4423 0.934425 77.6718 0.934425 62.1309V32.9673Z"
        fill="#4945FF" />
    <path fill-rule="evenodd" clip-rule="evenodd"
        d="M66.541 28.8463H34.5302V45.1715H50.8525V61.4966H67.1752V29.4803C67.1752 29.1302 66.8914 28.8463 66.541 28.8463Z"
        fill="white" />
    <path d="M50.8521 45.1716H50.2183V45.8056H50.8521V45.1716Z" fill="white" />
    <path
        d="M34.5297 45.1716H50.2183C50.5682 45.1716 50.852 45.4554 50.852 45.8055V61.4966H35.1635C34.8136 61.4966 34.5297 61.2127 34.5297 60.8627V45.1716Z"
        fill="#9593FF" />
    <path
        d="M50.8525 61.4966H67.1747L51.3935 77.2805C51.1938 77.4802 50.8525 77.339 50.8525 77.0565V61.4966Z"
        fill="#9593FF" />
    <path
        d="M34.5297 45.1715H18.9724C18.69 45.1715 18.5488 44.83 18.7485 44.6304L34.5297 28.8463V45.1715Z"
        fill="#9593FF" />
</svg>
    