<?xml version="1.0" encoding="UTF-8"?>
<svg width="114" height="40" viewBox="0 0 114 40" fill="none" xmlns="http://www.w3.org/2000/svg">
	<path
		d="M107.597 5.86587C108.271 6.54406 109.067 6.88315 109.986 6.88315C110.932 6.88315 111.743 6.54406 112.417 5.86587C113.092 5.18769 113.429 4.38692 113.429 3.46332C113.429 2.53972 113.092 1.73154 112.417 1.03902C111.743 0.346263 110.932 0 109.986 0C109.067 0 108.271 0.346263 107.597 1.03902C106.923 1.73154 106.585 2.53972 106.585 3.46332C106.585 4.38692 106.923 5.18769 107.597 5.86587Z"
		fill="white" />
	<path
		d="M34.988 14.7209C34.988 14.7919 34.9308 14.8493 34.8601 14.8493H30.1244V23.8539C30.1244 24.6043 30.3111 25.1527 30.6841 25.499C31.0571 25.8452 31.6022 26.04 32.3196 26.0835C32.9759 26.123 33.7761 26.1203 34.7206 26.0754L34.7449 26.0742L34.7886 26.0721L34.8534 26.0687C34.9264 26.065 34.988 26.1235 34.988 26.197V31.0119C34.988 31.0773 34.9389 31.1324 34.8742 31.1393C34.8427 31.1428 34.8108 31.1465 34.7874 31.149C31.0775 31.5466 28.4543 31.1786 26.9182 30.0446C25.3544 28.8901 24.5725 26.8267 24.5725 23.8539V14.8493H20.956C20.8853 14.8493 20.8279 14.7919 20.8279 14.7209V9.60976C20.8279 9.53874 20.8853 9.48138 20.956 9.48138H24.5725V5.90611C24.5725 5.80434 24.6324 5.71228 24.7251 5.67111L29.9448 3.36038C30.0294 3.32291 30.1244 3.38513 30.1244 3.47788V9.48138H34.8601C34.9308 9.48138 34.988 9.53874 34.988 9.60976V14.7209Z"
		fill="white" />
	<path
		d="M45.0558 13.204C45.5723 11.8187 46.4259 10.7797 47.6166 10.0872C48.7064 9.45315 49.9103 9.10944 51.2283 9.05554C51.2919 9.053 51.3895 9.05115 51.4686 9.04976C51.5398 9.0486 51.5979 9.10643 51.5979 9.17767V15.0521C51.5979 15.1747 51.4915 15.2691 51.3696 15.258C49.7686 15.1122 48.3313 15.4666 47.0572 16.321C45.7228 17.2157 45.0558 18.7019 45.0558 20.7799V30.998C45.0558 31.069 44.9985 31.1266 44.9277 31.1266H39.6318C39.561 31.1266 39.5036 31.069 39.5036 30.998V9.60929C39.5036 9.53851 39.561 9.48091 39.6318 9.48091H44.9277C44.9985 9.48091 45.0558 9.53851 45.0558 9.60929V13.204Z"
		fill="white" />
	<path fill-rule="evenodd" clip-rule="evenodd"
		d="M71.3086 9.48071C71.2381 9.48071 71.1807 9.53807 71.1807 9.60908V12.0348C69.5163 9.92805 67.178 8.87469 64.1651 8.87469C61.2958 8.87469 58.8353 9.97848 56.7838 12.1863C54.7322 14.3943 53.7063 17.0999 53.7063 20.3034C53.7063 23.507 54.7322 26.2126 56.7838 28.4204C58.8353 30.6284 61.2958 31.7322 64.1651 31.7322C67.178 31.7322 69.5163 30.6788 71.1807 28.5719V30.9978C71.1807 31.0686 71.2381 31.1262 71.3086 31.1262H76.6046C76.6753 31.1262 76.7327 31.0686 76.7327 30.9978V9.60908C76.7327 9.53807 76.6753 9.48071 76.6046 9.48071H71.3086ZM60.9366 24.7193C62.0557 25.845 63.4761 26.4078 65.1977 26.4078C66.9192 26.4078 68.3468 25.8376 69.4802 24.6978C70.6134 23.5577 71.1803 22.093 71.1803 20.3037C71.1803 18.5143 70.6134 17.0497 69.4802 15.9096C68.3468 14.7697 66.9192 14.1995 65.1977 14.1995C63.4761 14.1995 62.0557 14.7697 60.9366 15.9096C59.8177 17.0497 59.2581 18.5143 59.2581 20.3037C59.2581 22.093 59.8177 23.5648 60.9366 24.7193Z"
		fill="white" />
	<path fill-rule="evenodd" clip-rule="evenodd"
		d="M100.848 12.1863C98.7959 9.97848 96.3211 8.87469 93.4231 8.87469C90.4104 8.87469 88.0862 9.92805 86.4507 12.0348V9.60908C86.4507 9.53807 86.3933 9.48071 86.3226 9.48071H81.0266C80.9558 9.48071 80.8985 9.53807 80.8985 9.60908V39.656C80.8985 39.7267 80.9558 39.7843 81.0266 39.7843H86.3226C86.3933 39.7843 86.4507 39.7267 86.4507 39.656V28.5719C88.0862 30.6788 90.4104 31.7322 93.4231 31.7322C96.3211 31.7322 98.7959 30.6284 100.848 28.4204C102.899 26.2126 103.925 23.507 103.925 20.3034C103.925 17.0999 102.899 14.3943 100.848 12.1863ZM88.1287 24.7193C89.2478 25.845 90.668 26.4078 92.3898 26.4078C94.1114 26.4078 95.5389 25.8376 96.6721 24.6978C97.8056 23.5577 98.3724 22.093 98.3724 20.3037C98.3724 18.5143 97.8056 17.0497 96.6721 15.9096C95.5389 14.7697 94.1114 14.1995 92.3898 14.1995C90.668 14.1995 89.2478 14.7697 88.1287 15.9096C87.0097 17.0497 86.4502 18.5143 86.4502 20.3037C86.4502 22.093 87.0097 23.5648 88.1287 24.7193Z"
		fill="white" />
	<path
		d="M107.36 31.1266C107.289 31.1266 107.231 31.069 107.231 30.9982V9.60952C107.231 9.53851 107.289 9.48114 107.36 9.48114H112.656C112.726 9.48114 112.784 9.53851 112.784 9.60952V30.9982C112.784 31.069 112.726 31.1266 112.656 31.1266H107.36Z"
		fill="white" />
	<path
		d="M8.25282 17.0349C7.49244 16.674 7.11224 16.2052 7.11224 15.6278C7.11224 15.0796 7.34896 14.6466 7.82241 14.3293C8.29586 14.0117 8.89123 13.853 9.60856 13.853C10.9841 13.853 12.0232 14.3924 12.7258 15.471C12.7749 15.5462 12.8702 15.5767 12.9522 15.5402L17.6366 13.4557C17.7063 13.4247 17.7337 13.3398 17.6949 13.2741C17.6432 13.1864 17.5753 13.0724 17.5301 13.0009C16.7271 11.7313 15.6885 10.7857 14.386 10.065C12.9513 9.27137 11.3589 8.87445 9.60856 8.87445C7.2844 8.87445 5.34045 9.48787 3.77666 10.7145C2.21286 11.9411 1.43098 13.6222 1.43098 15.7578C1.43098 17.172 1.81116 18.348 2.57154 19.2859C3.33191 20.2241 4.25725 20.9094 5.34762 21.3424C6.43797 21.7752 7.52829 22.136 8.61866 22.4247C9.709 22.7132 10.6343 23.0379 11.3947 23.3987C12.1551 23.7593 12.5353 24.2284 12.5353 24.8055C12.5353 26.0467 11.5454 26.6671 9.56553 26.6671C7.68095 26.6671 6.37497 25.9667 5.64762 24.5654C5.58515 24.4452 5.44216 24.3901 5.3185 24.4452L0.647275 26.5271C0.58144 26.5563 0.55267 26.6344 0.583978 26.6994C0.602879 26.7388 0.6228 26.7797 0.637372 26.8091C2.26982 30.0911 5.24584 31.7322 9.56553 31.7322C12.0332 31.7322 14.0919 31.1333 15.7418 29.9356C17.3916 28.7379 18.2166 27.0279 18.2166 24.8055C18.2166 23.3337 17.8364 22.1071 17.076 21.1259C16.3156 20.1445 15.3903 19.4448 14.2999 19.0264C13.2096 18.6077 12.1192 18.2615 11.0289 17.9874C9.93853 17.713 9.0132 17.3957 8.25282 17.0349Z"
		fill="white" />
</svg>
	